<?xml version="1.0" encoding="UTF-8" standalone="no"?>
<svg
   xmlns:dc="http://purl.org/dc/elements/1.1/"
   xmlns:cc="http://creativecommons.org/ns#"
   xmlns:rdf="http://www.w3.org/1999/02/22-rdf-syntax-ns#"
   xmlns:svg="http://www.w3.org/2000/svg"
   xmlns="http://www.w3.org/2000/svg"
   xmlns:sodipodi="http://sodipodi.sourceforge.net/DTD/sodipodi-0.dtd"
   xmlns:inkscape="http://www.inkscape.org/namespaces/inkscape"
   viewBox="0 0 512 512"
   version="1.1"
   id="svg6903"
   sodipodi:docname="icon-full.svg"
   inkscape:version="0.92.1 r15371">
  <metadata
     id="metadata6909">
    <rdf:RDF>
      <cc:Work
         rdf:about="">
        <dc:format>image/svg+xml</dc:format>
        <dc:type
           rdf:resource="http://purl.org/dc/dcmitype/StillImage" />
      </cc:Work>
    </rdf:RDF>
  </metadata>
  <defs
     id="defs6907" />
  <sodipodi:namedview
     pagecolor="#ffffff"
     bordercolor="#666666"
     borderopacity="1"
     objecttolerance="10"
     gridtolerance="10"
     guidetolerance="10"
     inkscape:pageopacity="0"
     inkscape:pageshadow="2"
     inkscape:window-width="1366"
     inkscape:window-height="705"
     id="namedview6905"
     showgrid="false"
     inkscape:zoom="0.040741504"
     inkscape:cx="-4642.2271"
     inkscape:cy="-1864.8738"
     inkscape:window-x="-8"
     inkscape:window-y="-8"
     inkscape:window-maximized="1"
     inkscape:current-layer="svg6903" />
  <path
     d="M 0,0 H 344.5 V 512 H 0 Z m 0,0"
     id="path6885"
     inkscape:connector-curvature="0"
     style="fill:#fdba12;stroke-width:2.8011806" />
  <path
     d="M 255.64453,0 H 512 V 512 H 255.64453 Z m 0,0"
     id="path6887"
     inkscape:connector-curvature="0"
     style="fill:#ffa300;stroke-width:3.41045475" />
  <g
     id="g7464"
     transform="matrix(2.6637687,0,0,2.6637687,-425.92997,-227.8486)">
    <path
       id="path6889"
       d="m 297.21484,230 c 18.16407,0 32.88672,-14.72266 32.88672,-32.88281 0,-18.16407 -14.72265,-32.88672 -32.88672,-32.88672 -0.88671,0 -1.76562,0.0391 -2.63671,0.10547 -3.42188,-17.69141 -18.99219,-31.05469 -37.6836,-31.05469 -14.55859,0 -27.22265,8.10547 -33.73047,20.04687 -0.94922,-0.0703 -1.90625,-0.10937 -2.875,-0.10937 -21.19922,0 -38.38672,17.1875 -38.38672,38.39062 0,21.20313 17.1875,38.38672 38.38672,38.38672 h 76.92578 z m 0,0"
       inkscape:connector-curvature="0"
       style="fill:#ffffff" />
    <path
       id="path6891"
       d="m 297.21484,164.23437 c -0.88672,0 -1.76562,0.0352 -2.63672,0.10547 -3.42187,-17.69531 -18.99218,-31.05859 -37.68359,-31.05859 -0.42187,0 -0.83594,0.0312 -1.25,0.043 V 230 h 41.57422 c 18.16016,0 32.88281,-14.72266 32.88281,-32.88281 0,-18.16407 -14.72265,-32.88282 -32.88672,-32.88282 z m 0,0"
       inkscape:connector-curvature="0"
       style="fill:#e9edf5" />
  </g>
</svg>
