<?xml version="1.0" encoding="UTF-8" standalone="no"?>
<svg
   xmlns:dc="http://purl.org/dc/elements/1.1/"
   xmlns:cc="http://creativecommons.org/ns#"
   xmlns:rdf="http://www.w3.org/1999/02/22-rdf-syntax-ns#"
   xmlns:svg="http://www.w3.org/2000/svg"
   xmlns="http://www.w3.org/2000/svg"
   xmlns:sodipodi="http://sodipodi.sourceforge.net/DTD/sodipodi-0.dtd"
   xmlns:inkscape="http://www.inkscape.org/namespaces/inkscape"
   viewBox="0 0 512 512"
   version="1.1"
   id="svg6903"
   sodipodi:docname="icon-min.svg"
   inkscape:version="0.92.1 r15371">
  <metadata
     id="metadata6909">
    <rdf:RDF>
      <cc:Work
         rdf:about="">
        <dc:format>image/svg+xml</dc:format>
        <dc:type
           rdf:resource="http://purl.org/dc/dcmitype/StillImage" />
      </cc:Work>
    </rdf:RDF>
  </metadata>
  <defs
     id="defs6907" />
  <sodipodi:namedview
     pagecolor="#ffffff"
     bordercolor="#666666"
     borderopacity="1"
     objecttolerance="10"
     gridtolerance="10"
     guidetolerance="10"
     inkscape:pageopacity="0"
     inkscape:pageshadow="2"
     inkscape:window-width="1366"
     inkscape:window-height="705"
     id="namedview6905"
     showgrid="false"
     inkscape:zoom="0.057617188"
     inkscape:cx="-1270.7361"
     inkscape:cy="-1504.5331"
     inkscape:window-x="-8"
     inkscape:window-y="-8"
     inkscape:window-maximized="1"
     inkscape:current-layer="svg6903" />
  <path
     d="M 0,0 H 344.5 V 512 H 0 Z m 0,0"
     id="path6885"
     inkscape:connector-curvature="0"
     style="fill:#fdba12;stroke-width:2.8011806" />
  <path
     d="M 255.64453,0 H 512 V 512 H 255.64453 Z m 0,0"
     id="path6887"
     inkscape:connector-curvature="0"
     style="fill:#ffa300;stroke-width:3.41045475" />
  <g
     id="g7476"
     transform="matrix(2.7264634,0,0,2.7264634,-460.37824,-698.26216)">
    <g
       id="g7468">
      <path
         d="m 194,363.94531 h 51.44531 v 18 H 194 Z m 0,0"
         id="path6893"
         inkscape:connector-curvature="0"
         style="fill:#ffffff" />
      <path
         d="m 279.33984,399.5 h -18 v -58.16406 l -14.25781,12.47265 -11.85156,-13.54687 29.18359,-25.53516 14.92578,6.77344 z m 0,0"
         id="path6895"
         inkscape:connector-curvature="0"
         style="fill:#ffffff" />
    </g>
    <g
       id="g6901"
       style="fill:#e9edf5">
      <path
         id="path6897"
         d="m 264.41406,314.72656 -8.76953,7.67578 v 23.91797 l 5.69531,-4.98437 V 399.5 h 18 v -78 z m 0,0"
         inkscape:connector-curvature="0" />
      <path
         id="path6899"
         d="m 310.5,342.5 c -11.57813,0 -21,-9.42188 -21,-21 0,-11.57813 9.42187,-21 21,-21 11.57812,0 21,9.42187 21,21 0,11.57812 -9.42188,21 -21,21 z m 0,-28 c -3.85938,0 -7,3.14062 -7,7 0,3.85937 3.14062,7 7,7 3.85937,0 7,-3.14063 7,-7 0,-3.85938 -3.14063,-7 -7,-7 z m 0,0"
         inkscape:connector-curvature="0" />
    </g>
  </g>
</svg>
