<?xml version="1.0" encoding="UTF-8" standalone="no"?>
<svg
   xmlns:dc="http://purl.org/dc/elements/1.1/"
   xmlns:cc="http://creativecommons.org/ns#"
   xmlns:rdf="http://www.w3.org/1999/02/22-rdf-syntax-ns#"
   xmlns:svg="http://www.w3.org/2000/svg"
   xmlns="http://www.w3.org/2000/svg"
   xmlns:sodipodi="http://sodipodi.sourceforge.net/DTD/sodipodi-0.dtd"
   xmlns:inkscape="http://www.inkscape.org/namespaces/inkscape"
   version="1.1"
   id="Capa_1"
   x="0px"
   y="0px"
   viewBox="0 0 512 512"
   style="enable-background:new 0 0 512 512;"
   xml:space="preserve"
   sodipodi:docname="icon.svg"
   inkscape:version="0.92.1 r15371"><metadata
   id="metadata27"><rdf:RDF><cc:Work
       rdf:about=""><dc:format>image/svg+xml</dc:format><dc:type
         rdf:resource="http://purl.org/dc/dcmitype/StillImage" /></cc:Work></rdf:RDF></metadata><defs
   id="defs25" /><sodipodi:namedview
   pagecolor="#ffffff"
   bordercolor="#666666"
   borderopacity="1"
   objecttolerance="10"
   gridtolerance="10"
   guidetolerance="10"
   inkscape:pageopacity="0"
   inkscape:pageshadow="2"
   inkscape:window-width="1366"
   inkscape:window-height="705"
   id="namedview23"
   showgrid="false"
   inkscape:zoom="0.047128943"
   inkscape:cx="-4798.3056"
   inkscape:cy="64.778823"
   inkscape:window-x="-8"
   inkscape:window-y="-8"
   inkscape:window-maximized="1"
   inkscape:current-layer="Capa_1" />
	
	
	
	
	
	
<g
   id="g64"
   transform="translate(298.43677,-1465.4479)"><path
     style="fill:#009c8d;stroke-width:2.8011806;fill-opacity:0.79000002"
     inkscape:connector-curvature="0"
     id="path6885"
     d="M -298.43677,1465.4479 H 46.063233 v 512 H -298.43677 Z m 0,0" /><path
     style="fill:#009c8d;stroke-width:3.41045475;fill-opacity:1"
     inkscape:connector-curvature="0"
     id="path6887"
     d="M -42.792237,1465.4479 H 213.56323 v 512 H -42.792237 Z m 0,0" /></g><g
   id="g33"><path
     id="path14"
     d="m 352.5,136.908 c -1.237,0 -2.467,0.031 -3.693,0.077 C 337.283,96.588 300.096,67.011 256,67.011 c -44.096,0 -81.283,29.577 -92.807,69.974 -1.226,-0.046 -2.456,-0.077 -3.693,-0.077 -53.296,0 -96.5,43.204 -96.5,96.5 0,53.295 43.204,96.5 96.5,96.5 10.906,0 21.388,-1.811 31.164,-5.146 17.188,15.823 40.132,25.489 65.336,25.489 25.204,0 48.147,-9.666 65.336,-25.489 9.777,3.334 20.259,5.146 31.164,5.146 53.296,0 96.5,-43.205 96.5,-96.5 0,-53.295 -43.204,-96.5 -96.5,-96.5 z"
     style="fill:#ffffff"
     inkscape:connector-curvature="0" /><path
     id="path16"
     d="m 352.5,136.908 c -1.237,0 -2.467,0.031 -3.693,0.077 C 337.283,96.588 300.096,67.011 256,67.011 c -0.112,0 -0.222,0.007 -0.333,0.007 v 283.226 c 0.112,0 0.222,0.008 0.333,0.008 25.204,0 48.147,-9.666 65.336,-25.489 9.777,3.334 20.259,5.146 31.164,5.146 53.296,0 96.5,-43.205 96.5,-96.5 0,-53.295 -43.204,-96.501 -96.5,-96.501 z"
     style="fill:#e0e0e0"
     inkscape:connector-curvature="0" /><path
     id="path18"
     d="m 285.192,322.118 c 0,0 3.374,-30.542 -29.525,-63.441 -32.899,32.899 -28.859,63.441 -28.859,63.441 -34.289,-22.242 -94.874,3.936 -94.874,3.936 0,0 105.068,39.158 105.531,70.203 0.34,22.81 0.181,84.141 0.072,115.074 6.099,0.435 12.253,0.669 18.463,0.669 6.21,0 12.364,-0.234 18.463,-0.668 -0.109,-30.934 -0.269,-92.264 0.072,-115.074 0.463,-31.046 105.531,-70.203 105.531,-70.203 0,0 -60.585,-26.178 -94.874,-3.937 z"
     style="fill:#ffb344"
     inkscape:connector-curvature="0" /><path
     id="path20"
     d="m 285.192,322.118 c 0,0 3.374,-30.542 -29.525,-63.441 -0.115,0.115 0.114,-0.115 0,0 v 253.319 c 0.111,0 0.222,0.003 0.333,0.003 6.21,0 12.364,-0.234 18.463,-0.668 -0.109,-30.934 -0.269,-92.264 0.072,-115.074 0.463,-31.046 105.531,-70.203 105.531,-70.203 0,0 -60.585,-26.177 -94.874,-3.936 z"
     style="fill:#ff9451"
     inkscape:connector-curvature="0" /></g></svg>